# xmcd CD database file
#
# Track frame offsets:
#	150
#	16500
#	28462
#	41655
#	59020
#	69927
#	83832
#	100695
#	114620
#	128232
#	139530
#
# Disc length: 2057 seconds
#
# Revision: 0
# Processed by: cddbd v1.5.1PL2 Copyright (c) Steve Scherf et al.
# Submitted via: CDex 1.51
#
DISCID=8f08070b
DTITLE=Steve Carlson - Spot In The Corner
DYEAR=1900
DGENRE=Country
TTITLE0=Under You
TTITLE1=Chloe Bowed Her Head
TTITLE2=Pinata Nova
TTITLE3=Come Around More Alabama
TTITLE4=Radio In My Head
TTITLE5=I've Learned To Love
TTITLE6=Kinda Crazy These Days
TTITLE7=Ballad Of Denim Boy And Grey Girl
TTITLE8=Sounds So Good
TTITLE9=Spot In The Corner
TTITLE10=Without You
EXTD=
EXTT0=
EXTT1=
EXTT2=
EXTT3=
EXTT4=
EXTT5=
EXTT6=
EXTT7=
EXTT8=
EXTT9=
EXTT10=
PLAYORDER=
